/* XPM */
static char *d6754798ae4e4628d4aeed28efb5c48eyRgwbeS5v3YQYmzj[] = {
/* columns rows colors chars-per-pixel */
"77 93 248 2 ",
"   c #197C04",
".  c #0D0B0E",
"X  c #050306",
"o  c #0F0B10",
"O  c #110E13",
"+  c #151216",
"@  c #1C161C",
"#  c #1D191E",
"$  c #171318",
"%  c #100E0F",
"&  c #201B1F",
"*  c #2A251C",
"=  c #2E2F1B",
"-  c #1F1A20",
";  c #211C22",
":  c #321D31",
">  c #1D2D33",
",  c #242125",
"<  c #272328",
"1  c #2A252A",
"2  c #2D292E",
"3  c #2A2925",
"4  c #322B2D",
"5  c #34282A",
"6  c #2C3429",
"7  c #2F2B30",
"8  c #2D2A3B",
"9  c #292837",
"0  c #332433",
"q  c #322C32",
"w  c #332A3B",
"e  c #382836",
"r  c #283234",
"t  c #353135",
"y  c #373338",
"u  c #3A353B",
"i  c #3C393D",
"p  c #383534",
"a  c #3F3829",
"s  c #4B3F1D",
"d  c #4B3C2C",
"f  c #453C39",
"g  c #4D3437",
"h  c #633E23",
"j  c #3A4432",
"k  c #3E431B",
"l  c #4D4B15",
"z  c #554628",
"x  c #4B532D",
"c  c #4D443C",
"v  c #4B4B3C",
"b  c #474737",
"n  c #51443B",
"m  c #534B3D",
"M  c #574736",
"N  c #4B5438",
"B  c #53523D",
"V  c #555132",
"C  c #494529",
"Z  c #664939",
"A  c #6C4E28",
"S  c #726530",
"D  c #67591A",
"F  c #2C2C42",
"G  c #382E41",
"H  c #3F3B41",
"J  c #3F334B",
"K  c #3A3E5D",
"L  c #2E1F40",
"P  c #423D43",
"I  c #4C3C4A",
"U  c #483846",
"Y  c #533C47",
"T  c #493A57",
"R  c #513E54",
"E  c #452E40",
"W  c #4E3F6B",
"Q  c #3B424A",
"!  c #3B4557",
"~  c #3F5554",
"^  c #3F4F70",
"/  c #454246",
"(  c #4C4344",
")  c #4D4C44",
"_  c #464249",
"`  c #4A454B",
"'  c #4D494E",
"]  c #454C49",
"[  c #534443",
"{  c #544C44",
"}  c #53454C",
"|  c #524B4B",
" . c #5B4C4C",
".. c #5B4746",
"X. c #4A5346",
"o. c #54534B",
"O. c #444452",
"+. c #4B4352",
"@. c #464D53",
"#. c #4E4B51",
"$. c #4B445B",
"%. c #464C5C",
"&. c #4C4B5B",
"*. c #46465B",
"=. c #534553",
"-. c #514D52",
";. c #534D54",
":. c #524C53",
">. c #53455B",
",. c #524B5B",
"<. c #5A4755",
"1. c #445253",
"2. c #4B5254",
"3. c #4A515C",
"4. c #42525C",
"5. c #555155",
"6. c #555259",
"7. c #5A555B",
"8. c #5D595E",
"9. c #585A55",
"0. c #614848",
"q. c #655544",
"w. c #694F51",
"e. c #6E644D",
"r. c #4D4B63",
"t. c #4C4B6B",
"y. c #484764",
"u. c #534B63",
"i. c #554668",
"p. c #5F5B60",
"a. c #565A64",
"s. c #4A4A74",
"d. c #4D4E6A",
"f. c #625D63",
"g. c #60506A",
"h. c #6B6A6C",
"j. c #686668",
"k. c #716C73",
"l. c #787479",
"z. c #6F6D70",
"x. c #87671D",
"c. c #916916",
"v. c #895E28",
"b. c #905F25",
"n. c #876627",
"m. c #977A2B",
"M. c #977A36",
"N. c #8E7C3C",
"B. c #A67A39",
"V. c #8D5E1A",
"C. c #9B7A48",
"Z. c #886A48",
"A. c #A47943",
"S. c #A76E43",
"D. c #BCA91A",
"F. c #8C8428",
"G. c #8B8336",
"H. c #988237",
"J. c #928228",
"K. c #A18335",
"L. c #AC8A28",
"P. c #BAAA25",
"I. c #B9AC39",
"U. c #FA9909",
"Y. c #FB9819",
"T. c #F19812",
"R. c #E6A706",
"E. c #FCAA03",
"W. c #FCAD0B",
"Q. c #F8A70A",
"!. c #F4B502",
"~. c #FCB40D",
"^. c #F9B908",
"/. c #EDA112",
"(. c #FDAD14",
"). c #FAA719",
"_. c #F9B718",
"`. c #EEB913",
"'. c #FD9725",
"]. c #F49C3B",
"[. c #EB932F",
"{. c #DAAE36",
"}. c #EAA828",
"|. c #FFA523",
" X c #FCAA27",
".X c #ECB72A",
"XX c #F4B22B",
"oX c #FAB426",
"OX c #EBA537",
"+X c #F5A636",
"@X c #F6B636",
"#X c #EABE3A",
"$X c #CE9B23",
"%X c #FDCB07",
"&X c #FED500",
"*X c #FDDC01",
"=X c #F9D909",
"-X c #FECC19",
";X c #FCD718",
":X c #EBDA01",
">X c #F8E305",
",X c #FDE313",
"<X c #F8E41A",
"1X c #E5E11D",
"2X c #F9CA27",
"3X c #FADE27",
"4X c #FFD439",
"5X c #EED22E",
"6X c #F9E424",
"7X c #F9E338",
"8X c #EEE531",
"9X c #DFC623",
"0X c #99834B",
"qX c #968C56",
"wX c #8C8B52",
"eX c #B7AE52",
"rX c #8A8C69",
"tX c #8C926B",
"yX c #8F946C",
"uX c #B6B075",
"iX c #A78142",
"pX c #F59E42",
"aX c #CEAF50",
"sX c #ECB044",
"dX c #CDAD7E",
"fX c #FDC44A",
"gX c #FEDB45",
"hX c #E2DA49",
"jX c #FBE847",
"kX c #FDEA57",
"lX c #FEF457",
"zX c #FAF24F",
"xX c #FFE968",
"cX c #FFF767",
"vX c #FEE877",
"bX c #FEF778",
"nX c #807E80",
"mX c #898689",
"MX c #B1A784",
"NX c #C0BD8A",
"BX c #FBE881",
"VX c #FFF48B",
"CX c #FDFA87",
"ZX c #FDFD9B",
"AX c #FBF896",
"SX c #FBFCA8",
"DX c #FEF9B6",
"FX c #FFF4C1",
/* pixels */
"                                                                                                                                                          ",
"                                                                                                                                                          ",
"                                                                                                                                                          ",
"                                                                                                                                                          ",
"                                                                                                                                                          ",
"                                                                                                                                                          ",
"                                                                                                                                                          ",
"                                    . % + $ + $ + + + $ 3 < 1 3 3 1 2 < 1 2 < 1 1 < 1 1 1 < < < 1 < 2 3 1 2 1 < < < 1 3 1 #                               ",
"                                    X - @ $ # # @ @ $ ; 7 q q 7 2 7 7 7 7 q 2 2 2 2 2 2 2 2 4 2 2 2 2 0 7 7 7 q 7 q q 7 t ,                               ",
"                                    . ; # # @ - @ @ - ; 7 0 2 q 7 q 7 7 q q 0 q q 0 7 q 0 q q 7 q q q q q q 0 q 2 w 4 2 2 <                               ",
"                                    o @ @ & # - ; ; ; ; q q e H ` ` I P I P _ / I / I / P ` P ` ` ` ' ` I / P ' ( #.P w t 2                               ",
"                                    O - # # - - @ @ - ; q q 7 P ;.;.:.,.;.;.;.:.:.:.:.,.;.;.,.;.5.g.8.7.;.,.:.7.8.f.:.q 2 <                               ",
"                                    $ - - ; - - @ - $ - q 7 < ` ;.;.;.:.:.:.X.o.| ;.;. .Z 0.{ | o.9.a.a.;...:.7.8.f.:.7 2 2                               ",
"                                  l.$ - - $ - $ @ : - : u u u _ _ / ` ` ` ' / _ ` O.I I Y [ +.O.o.#.3.%.` Y ` ' ;.;.' i p 2                               ",
"                            i X O O - ; ; ; - - 1 q 7 y ' | ' u q q q 2 2 2 7 q e w w w w F 8 8 7 7 8 w 8 0 2 2 7 2 q ' 5.5.t , $ h.                      ",
"                            i O - - - $ ; - - - 1 q 7 y :.;.5.y 2 q q q q q 9 8 q 0 e 7 7 r 9 r 2 2 q w w G q q y 2 t | 2.2.p 2 & z.                      ",
"                            / $ - - - - ; - @ @ < q 4 y ` :.7.u q q 2 q 7 2 G w q 4 q 7 r r r 2 6 5 5 5 w 8 7 2 q 7 y ;.' 2.p q # h.                      ",
"                            H O @ ; - $ @ - - - < y q y ' ;.| w q 4 w ` ' ` ` ` _ ( ` ] ! ! O.+.' ` [ n ( O.:.i q q u 7.6.7.u p < z.                      ",
"                            / @ ; @ @ < ; $ - @ ; w 4 y ' :.;.u y 2 y :.#.#. .:.;.| ` $.d.r.=.=.i.>.} { X.@.:.u 2 q u 8.7.9.u 2 , h.                      ",
"                            _ o - - - @ - ; - - , q q p ' :.5.y 4 2 y :.:.:.} =.&.) b f b b Z g ..<.| { ) @.:.H < q u 7.p.f.u 2 , h.                      ",
"                            b + ; - - $ - - - $ 1 q 4 y :.:.;.y 7 2 u :.#.#.<.r.3.9.yXqXwXm.c.M.q...| ) 2.%.:./ u i _ / ' _ / i t 9.                      ",
"                            H + - @ - - - - - - 2 q q w ' | :.u w q u ' #.;.w.y.! rXSXZXCXsXOX{.C. .#.{ 2.y.:.:.;.' ` q 7 1 P 6.5.' @ - ,                 ",
"                            Q $ ; - - - - @ - $ < 2 7 y #.;.;.u 2 2 y | #.#.[ ,.! yXAXbXvXOX}.OXC.` $.| | 3.` #.5.;.` q 2 2 ' ` ' ( 2 u <                 ",
"                            i @ - @ - - - ; ; - 1 y w u ` #.' i w q i :.5.#.Z 3.Q tXCXlXvX+XT.+XC.I ,.| v @.5.| :.#._ t q q ` #.7.` w 2 q                 ",
"                      1 6 t < $ - - - - ; 7 7 2 H ' ` / y w y P ' ` ` #.| :.M @.Q wX4X;X4XXX(.@XA.c &. .v @.:.:.:.:.` q 2 2 ' 8.;.' 2 7 q                 ",
"                      X @ $ # $ - - - $ - 7 q q P ;.;.` 7 2 2 P 5.;.:.:.#.#.B &.] F.6X*X;X^.E._.L.b ,. .{ 2.` ' :.:.` q q q #.8.p.;.2 t 7                 ",
"                      . # $ @ - - - - @ - 7 q 2 H ;.;.' q q 7 _ ' ' :.:.:.| m r.O.F.,X*X=X^.E._.K.n <.0.| &.:.| :.:.` 7 0 q #.7.f.` 7 q 7                 ",
"                      % , # @ - @ @ - - - 7 t 7 P ;.;.` 7 7 2 _ :.:.:.' :.;.{ t._ m.,X&X;X_.~.XXK.c i.<.;.%.2.' ' ' ` q 7 2 ' p.7.;.q 7 q                 ",
"                      o ; - # # - - - @ - 0 > 6 f  .} } 5 7 > ! &.:.&.@.@.| X.s.y.Z.<X*X&X^.W.#XH._ 4.2.' &.^ y.;.} +.w 8 9 ,.7.9.v 2 y e                 ",
"                      O - # # # - @ - @ # 0 r 4 f 5.>.=.e 5 2 Q X.{ { ) { [ V &.%.G.<X>X%X(.(.XXK.c ' { { ,.+.} [ ..} 5 t 4 } 9.9.o.2 w e                 ",
"                      + ; ; # # - - - - & 4 4 3 f ,.$.+.g 5 5 b | { ) { ..0.z &.! G.8X;X4X@X).XXK.M { B { >.0...{  .} 0 5 3 5.9.2.#.9 7 p                 ",
"                      o # ; @ # - $ - - & 2 q 5 P 6.4.*.9 0 2 Q ,.u.$.,.i.i. .d.! tXAXcXxX}.R.`.B.f ,.:.$.t.i.>.@.3.*.F u 2 Q 3.&.$.7 5 2                 ",
"                      O ; - @ - # # # # & 4 e 5 P 1.1.1.1 q 2 / u.r.r.d.t.W 0.i.K rXZXbXvX.XR.}.M.E i.<.r.s.W r.1.1.~ F F 9 Q 4.$.T e p 3                 ",
"                      $ # - - - - # & ; & 4 : 0 U 5.1.j = * = = l z z v ` I h z C qXAXVXvX}./.OXB.h M z d #.R z l l k 6 & * / 6.i.T 0 5 t                 ",
"                8.h.2.@ - @ # @ - ; < < 5 f Y Y U E H { MXuXuXeXP.D.eXuXuXuXD.D.D.{.fXfXfX X). X{.P.P.P.eXNXdXaXD.D.I.eXuXuXq.g g U ` _ P k.l.h.          ",
"              ) X + % - ; @ # @ ; < q 4 w ' 2.| U w ; n DXSXCXlX,X=XjXCXSXZX<X>X,X-X`.|.).XX X X-X,X>X6XbXSXAXjX>X,XjXbXVXDXe.; 4 u ' 2.,.1 ; + nX        ",
"              9.% , & # # # # # ; < w 4 4 | ~ X.f 8 9 N SXbXcX8X=X&X7XCXCXCX6X>X*X%X~._.~.`.XX_.%X*X>X6XbXAXAXjX:X:XjXcXbXAXe.: t 6 1.1.#.p t <           ",
"              5.. # # # - # # # # ; q q q ' ~ X.a > < x CXlXkX5X-X-XgXvXvXxX4X-X;X_.|._.`.`._.).~.%X%X2XxXvXBXjX;X-X4XgXkXBXw.L F 6 X.X.' p q - mX        ",
"              2.% & # # - # # - - < t 4 t | y.' d q 9 s sXR._./.U.U./.@X.X`.'./.Q.Y.|.(.!.!.(.|.).U.U.Y..X.XXXW.!.W./././.{.A L F j X.' #.p 6 , mX        ",
"              9.% , # # - # - # # , q 7 q #.i.} d 5 e h sX~.(.Y.'.Y.'.oX).~.'./.T.).oX(.~.~.(.|.Y.Y.'.'.).`.).W.~.oX|.U.T.OXA : 8 p { ) 2.y t - mX        ",
"              5.% # $ @ # , - # # ; y 2 q | >. .g 0 0 g aXsX@X+XpX].OXOX@XoXOXsX[.'._.!.!.(.(.oX|.[.pX+X@X.XoXoX@XsXpX+X}.sXh e 8 p | | ;.e 7 & mX        ",
"              9.+ < & # # @ # # - < q 7 q | ) | f 9 9 a C.b.x.x.v.v.v.n.x.x.c.v.S L.2X&X;X_.W._.$Xb.v.b.x.x.x.S n.n.n.n.v.S d 0 q i | [ ;.E t ,           ",
"              5.% - - - # @ # # - < q q q ' X.5.J 2 6 6 } b c b d ..} c v b l { U N.3X*X&X!.^..Xm.g ( n z n b v [ n M n Y Y p * 2 y #.X.,.G q &           ",
"              ' X % + @ - - # # - ; w 4 q ' N ;.T 2 = = u.s.d.~ ,.t.t.y.4.~ V d.W C.3X*X&X^.!.#XC.y.s.r.#.#.y.t.i.>.} r.s.s.f = 3 i 3.1.' 9 < $ mX        ",
"                5.j./ @ ; @ @ @ ; ; 2 < 2 / ` P P u y P P _ P =.:.' #.#.:.#.v r.+.M.3X*X=XW.E.+XG.j 3.) =.i.:.:.:.:.#.P ` ` u y i i / _ Q h.z.j.          ",
"                      + @ @ ; @ & # - @ # 4 2 4 / 5.:.` 7 2 q P ' :.#.:.#.:.v r.I m.,X>X%XE.Y.].C.v 2.o.' >.#.#.:.:.P q q 7 ` 6.:._ 2 3 p                 ",
"                      . ; ; ; ; ; @ & # # 2 q 2 P ;.:.` q q 2 P :.:.:.#.' #.v u.=.J.<X>X&XQ.Y.].S.n #.| [ &.;.:.;.:.` q 2 2 P ;.' ` 2 t ,                 ",
"                      o @ ; & @ @ & ; # # 4 y q i :.:.` q y q ` 5.:.#.| :.:.x >.I G.8X:X-X).Y.].A.n o.{ { $.:.:.#.:.` q q q ` ' 5.] < p 2                 ",
"                      @ - - - # @ @ ; @ & 0 q 7 P ;.;.' q 2 2 P :.#.' :.:.:.B ;.O.rXbXlXlX@XQ.oXB.c :.{ { u.=.' ' ' / 7 7 q :.;.p.' 1 < p                 ",
"                      o - - ; ; ; & ; @ & 2 q q P ' ' ' q q 2 P :.' :.:.:.| m ,.P rXSXSXVX.X!._.H.) #.{ } r.:.#.:.;.` q q 2 ' p.7.2.t 2 q                 ",
"                      o ; $ @ # & @ ; @ & 2 0 q P :.:.' q 7 q ` ;.:.#.:.#.' } u._ tXSXAXVX9X!.9XH.` &.{ { =.} ' :.:.` q 7 7 ' f.7.' 2 t 7                 ",
"                      + ; ; & ; ; @ ; ; & 2 q 4 P :.:.` q q 2 P :.:.' :.:.:.| i.I wXbXkXkXoXR.XX0X+.,.{ { | ,.' :.:.` q q q | ,.9.' 2 4 7                 ",
"                      O ; @ @ ; @ ; & @ ; 4 7 4 P :.#.' q 7 q P :.:.:.' ' :.) &.+.N.8X:X-XQ.Y.'.A.` ,.{ { &.#.,.' :.` q w 2 _ | ' / q r 1                 ",
"                      $ @ ; & ; @ ; & @ ; 2 q q P :.:.' q q q / :.:.' :.:.:.V 3.+.H.<X=X;XU.Y.].A.g ) o.| &.} ;.:.:.` 2 t 2 / :.#./ q 2 7                 ",
"                      O @ ; ; ; # @ # ; ; 2 q 4 P :.:.' 2 t 4 / :.:.#.:.' ' x #.` H.7X=X-XQ.U.+XB.n X.| :.t.,.:.:.#.' 2 q q ` 5.5./ t 2 7                 ",
"                      O ; @ @ ; ; # # # # 4 q 1 P ' :.' < w q / :.' :.:.,.` o.u.' qXcXzXkX_.Q.}.C.( &.| { &.;.` #.' ' q q 2 ' 7.7.) 3 t r                 ",
"                      o < - $ - ; @ ; @ ; 0 t 4 / ;.;.#.2 7 2 ` ;.;.:.:.:.#.#.y.P rXCXbXbX_.!.2X0X+.r.o.m :.,.' :.:.` 4 4 2 ' 6.8.:.q t 1                 ",
"                      X O o ; $ ; & @ @ & 2 w q P 5.#.` w 7 q P :.:.' ' } #.>.i.! tXSXAXVX5X!..X0X$.u.{ m ` | ' :.:._ w 2 q ;.f.j./ , + 2                 ",
"                            e $ ; @ @ - & ; 1 ; w / u H P f H P P i _ ' :.:. .,.Q tXDXAXVX#XE.oXA.=.>.{ m ' :.I H P u P P P P P P 8.                      ",
"                            U @ - @ ; - & @ @ @ ; q < y ;.;.;.P < < i :.:.:.V :.H rXSXAXVX@XW.oXB.Y } { { &.:.i ; 7 u ;.:.5.u 2 ; j.                      ",
"                            P $ ; @ ; - - & # # < t 2 y #.:.:.u 2 7 u :.' :.Z >.K mXFXAXVX5X_.oXK.v &.,.i.i.:.i 7 4 y ' ' ;.u q < h.                      ",
"                            P + ; @ - @ - & # # < y 4 y #.:.:.u q q u :.#.:...>.Q rXVXcXxX_.Q.oXA.{ &. .} +.:.i q q y :.:.;.u q ; h.                      ",
"                            / + ; @ ; @ - - # # < t q y | #.;.u 2 q y ;.#.| ..,.j G.jX=X;XQ.U.'.S.` &. .m ) :.i q 7 y :.#.:.u q ; z.                      ",
"                            P + ; @ - @ - - # # < w 4 y #.:.:.u 7 7 u :.#.,.V ' b F.6X:X%XE.U.'.S.[ 2.{ m ) 5.u q 2 y :.' :.u q < h.                      ",
"                            Q + & # & # @ @ ; @ : q 2 y :.:.;.u 2 q y ;.:.:.V #.] F.6X&X-X(.U.].B.c 2.B m #.:.i q 2 y :.:.:.u q < h.                      ",
"                            P $ & # # # ; ; ; @ 1 q q y } #.;.u 2 q y ;.' :.m y.+.G.<X:X=X^.).@XA.c X.{ { &.' i 7 q u 7.5.7.i t ; h.                      ",
"                            / $ ; @ ; # - @ - - ; y 7 y #.#.;.u 2 q u :.' :.) t.y.H.<X>X=X_.(.@X0X) 1.X.| ,.2.i 7 2 u 7.8.8.y q < h.                      ",
"                            H + ; # # # - @ - @ 1 w 7 y #.:.;.u q q p ;.:.:.m y.W M.;X*X&X_.(.@XiX( @.) | ,.' u q 0 u 7.8.8.u w < h.                      ",
"                            / O # # @ ; $ ; - @ < w 4 p :.:.:.u 7 7 w ;.' :.x ,.R M.;X*X&XW.~.@XA...&.` 7.i.#.H q 2 y 7.8.p.i q < j.                      ",
"                            P $ ; @ - ; - - - - < q 2 w ' ' ;.u 7 q i ;.' ' x ;.Y m.<X*X*X^.E.oXB.n 6.:.;.R #.u q 7 H 8.7.7.P q ; h.                      ",
"                            i $ ; ; - # $ ; ; - < t q y :.:.5.u 2 2 y :.:.:.) a.U H.6X>X*X%X!.2XB.d :.) { } 2.i q 7 u 8.8.8.u q 2 k.                      ",
"                            / + - @ # ; @ - - @ < q 2 y #.:.:.u q 4 y :.' ;.' i.R C.hX1X1X9X{.aX0X..2.X.{ { #.i q q u ;.7.p.i q < j.                      ",
"                            P @ , @ $ < - # # @ < t 2 y ' | :.u q q u :.' #.X.>.i.o.S S S A S S q.` 2.2.o.[ | i 7 7 y ;.#.:.u q < z.                      ",
"                            / + , , - - $ , # # < y q u :.;.;.u 2 2 u 5.:.:.{ } u.&.Q O.&.W R Y | &.@.@.| [ 5.i 2 2 y 5.#.:.H q < k.                      ",
"                            i X o + $ - # - # # < w 4 u #.;.;.u 7 7 y #.#.;.v { <.,.@.r.t.i.i.R } :.#.2.&.5.:.u q 7 y :.' :.2 , $ j.                      ",
"                              k.l._ - # - # # # ; 4 , 2 P P ` i i i i ( P P ) 5.) { X.) | ,.<.0...{ &.1.Q / / i u u u ` P / k.mXl.                        ",
"                                    o - - # # # # # # - 2 q 2 / 5.2./ 2 q 1 ` #.:.:.| ;.:.:.:.' ;.' 5.| q 2 2 P 5.;.' 2 2 <                               ",
"                                    o - - # # # $ # @ # 2 7 2 / 5.' / 2 7 2 ` :.:.:.#.:.:.:.:.#.;.' 5.` q 2 q P :.:.` 2 q 3                               ",
"                                    o - # # # # # # @ , 7 q 7 / :.#.` 7 t 2 ` ' | ' ' #.| ' ' ' ,.' :.` y y q P 5.#.` 2 r <                               ",
"                                    % - , # # & # # @ , 7 7 2 / ' :.` 2 7 t q y y w q y y y q w y 4 y w < q 2 ` 8.7.#.q t <                               ",
"                                    % # - - # - - - @ ; q q 7 / :.;.` 2 2 2 2 0 q 2 2 0 q 7 7 2 7 2 7 q q w 2 ` j.8.5.t t <                               ",
"                                    % & - - # - # - # , 7 q 7 _ :.:./ q q 2 q 0 q q 0 q 7 0 0 7 0 7 0 0 q q 2 ` 8.8.' 7 7 1                               ",
"                                    % # - - # - - - # ; 7 q 7 _ :.#.' i P u P P H f H P P H H f H P P P P f H ' 9.;.' 2 r 3                               ",
"                                    % - - # # - # - @ ; 7 q 7 / #.#.;.' 6.:.;.:.,.;.:.,.:.,.=.:.,.;.;.;.;.+.' =.:.' ' 2 t <                               ",
"                                    % @ - # # # # # # - 7 q 2 / 5.5.' #.;.:.:.:.:.} :.#.=.#.:.:.:.:.:.:.:.:.#.:.' ;.` q q 3                               ",
"                                    % # # - # # # # @ - q q y P ' ' _ ' ' ` ` ' #.` ' ' ' ' ' ' ' ` ' ' ' ' ' ' _ ' P q 2 <                               ",
"                                    % , - @ - - # - @ , 7 q < q q q 7 7 q q q q q q q q q q q q q q q q q q q t q y y 2 t 3                               ",
"                                    . - < - # , # & # , q 7 t t q t t t t q t t q y q y w t y q y q w q q y 7 t 7 q q 7 t 1                               ",
"                                    X + O o o % % % % $ - < , , - , , - , , , ; , , ; , , , , , , * , ; , , , < , , ; , , @                               ",
"                                                                                                                                                          ",
"                                                                                                                                                          ",
"                                                                                                                                                          ",
"                                                                                                                                                          "
};
