/* XPM */
static char *_53323f4706c4c99c1e145e705aa4677DcucdRheLQgJov2x[] = {
/* columns rows colors chars-per-pixel */
"32 32 133 2 ",
"   c None",
".  c #574535",
"X  c #5A4536",
"o  c #5E4538",
"O  c #5F483C",
"+  c #63463B",
"@  c #6C453E",
"#  c #65483E",
"$  c #68483E",
"%  c #70453F",
"&  c #6E4740",
"*  c #664C44",
"=  c #6D4C43",
"-  c #724641",
";  c #744A44",
":  c #794B46",
">  c #764E48",
",  c #7C4E4A",
"<  c #64544D",
"1  c #7E514D",
"2  c #665A55",
"3  c #685955",
"4  c #695C58",
"5  c #745656",
"6  c #745B5B",
"7  c #6B6362",
"8  c #6F6B6D",
"9  c #7A6264",
"0  c #716E71",
"q  c #737175",
"w  c #76767D",
"e  c #78757C",
"r  c #81524E",
"t  c #845552",
"y  c #895754",
"u  c #855856",
"i  c #8B5A57",
"p  c #805E5E",
"a  c #8D5C5A",
"s  c #905B57",
"d  c #915E5C",
"f  c #93615F",
"g  c #98625E",
"h  c #A6695F",
"j  c #956260",
"k  c #9C6663",
"l  c #9F6865",
"z  c #967476",
"x  c #9B7573",
"c  c #A66C66",
"v  c #A66C67",
"b  c #A76C67",
"n  c #A36A65",
"m  c #A96C61",
"M  c #A86C65",
"N  c #A86D66",
"B  c #A86D67",
"V  c #AD6F66",
"C  c #AD6F67",
"Z  c #A36A68",
"A  c #A36B68",
"S  c #A46B68",
"D  c #A56C69",
"F  c #A66C68",
"G  c #A66C69",
"H  c #A76D6A",
"J  c #A86D68",
"K  c #A86D6A",
"L  c #A86E6A",
"P  c #A96E6A",
"I  c #A96E6B",
"U  c #AA6F6B",
"Y  c #AB6F6B",
"T  c #A96E6B",
"R  c #AF7066",
"E  c #A1776F",
"W  c #A1776F",
"Q  c #AC706B",
"!  c #AD706B",
"~  c #AF716A",
"^  c #AE716B",
"/  c #AB706C",
"(  c #AC706C",
")  c #AD706C",
"_  c #AC706D",
"`  c #AF716D",
"'  c #A1786F",
"]  c #A7786D",
"[  c #B17162",
"{  c #B47263",
"}  c #B37267",
"|  c #B77464",
" . c #B77465",
".. c #B57467",
"X. c #B77466",
"o. c #B67467",
"O. c #B77467",
"+. c #B57767",
"@. c #B87462",
"#. c #BB7563",
"$. c #BC7663",
"%. c #BD7663",
"&. c #BD7763",
"*. c #BE7763",
"=. c #BF7763",
"-. c #BA7565",
";. c #BB7664",
":. c #BA7665",
">. c #BB7665",
",. c #B87566",
"<. c #B97566",
"1. c #B87567",
"2. c #BC7664",
"3. c #BD7664",
"4. c #BD7764",
"5. c #BC7765",
"6. c #BF7764",
"7. c #BF7763",
"8. c #BF7864",
"9. c #B17268",
"0. c #B17269",
"q. c #B27269",
"w. c #B37369",
"e. c #B2736A",
"r. c #B3736A",
"t. c #B47368",
"y. c #B57368",
"u. c #B17769",
"i. c #B67569",
"p. c #A17870",
"a. c #A27870",
"s. c #797A82",
"d. c #797982",
/* pixels */
"                                                                ",
"                  - t , y d u 6 p i d d i t ;                   ",
"              9 1 g N c j g l h l N ,.4.h n g 1 9               ",
"            r k H ,.%.{ m M ;.;.[ 7.%.%.7.7.,.c k r             ",
"          r n k c 4.7.;.&.@.,.7.%.%.7.7.&.7.7.K k n r           ",
"      e 5 a n d l e.4.7.7.7.7.7.%.%.7.7.7.5.Q n d n a 5 e       ",
"      6 : l Y Y H A m ;.7.&.7.&.%.7.7.7.;.m A H K Y l , 6       ",
"    q * : i l l H / l ;.7.7.&.7.7.7.7.7.;.n K H l n i : * e     ",
"  d.7 @ s c , y K Q N %.&.7.7.7.7.4.7.4.%.c / H y , n s @ 7 d.  ",
"  e * @ : t a j H H c %.7.&.5.7.7.7.7.7.7.c H H g i t : @ * e   ",
"  q + % * a K K A / Q 7.7.7.7.&.7.4.7.7.7.Q / n K G a * - + 0 z ",
"  q O 1 i d l n A ( | 7.7.5.7.7.7.7.4.4.4.| Q A n l f i 1 O q x ",
"  q # u f t , n e.,.7.4.7.7.7.&.7.7.7.4.7.4.,.e.n > t j u # q p.",
"  q # 1 t > , V 7.%.7.7.4.7.7.7.4.7.7.7.7.7.7.7.V 1 > r , # q p.",
"  w 4 - 1 l k | 7.7.7.7.7.4.7.5.7.&.7.5.%.7.7.%.| k l t - 4 w i.",
"  w 3 ; f H ( ,.7.,.%.7.7.7.7.7.&.7.7.7.%.4.4.%.,.Q H f ; 2 w u.",
"  q # - r g / c @.} ,.7.7.&.7.7.7.7.7.7.7.;.} | n K k 1 - + q x ",
"  q # , a f a f H l R 7.4.7.&.&.7.5.7.&.%.} l c g a g a , # q x ",
"  7 ; a f 1 a / / ..,.7.7.7.7.7.7.7.&.7.7.,.y.( / a 1 g a ; 7 ' ",
"  < 1 f t + a ` | %.7.4.7.&.7.7.&.7.5.7.7.7.%.1.( a + t f , < ' ",
"  < % 1 y u j r.7.7.7.7.%.%.7.7.7.&.7.7.7.7.%.7.r.j i i 1 % < ' ",
"  < + t j n ( r.7.4.4.| e.,.7.7.7.&.%.i.e.,.8.,.` / j j t + < x ",
"  2 $ a a G ( ( i.,.| l j H Q | 5.e.Q / Q | ,.y.( ( n a a $ 2 x ",
"  q = a t l ( / Y Y l j f i f l n g n K Q c Y ( ( ( l t i * q p.",
"  3 @ : 1 d j H j i j a a 1 i j d , r d y f a g / j f 1 : @ 3 p.",
"  < t t - , u a , j H a * o - u , - - - @ n c 1 a u , - , t < p.",
"  3 t i : r , : 1 k Y i + & & - u : % + + g Y t : : r : a t 3 ' ",
"  0 = r j n , + = i 1 & ; a u t j : - @ + ; u & $ , n j 1 ; 0 ] ",
"  0 * : d k t + + + . ; a d , , u # + - - o + + + u k d : * 8 &.",
"  d.3 @ t y ; X + 1 + - i i : @ @ . + @ + + 1 + . ; u t @ 4 w 7.",
"    8 * - - + . + t + & + & - + . . o + X + t + . + % - * 8   7.",
"    d.7 o o X . X @ + o o - + . . . o o . o @ X . X + + 7 d.  4."
};
