/* XPM */
static char *_50a20923d6a4a84b6c72231d936a2304ubqUnOWfF7r8Kmo[] = {
/* columns rows colors chars-per-pixel */
"32 32 131 2 ",
"   c #020202",
".  c #0C0A04",
"X  c #050609",
"o  c #0B0B0B",
"O  c #1D1607",
"+  c #14140A",
"@  c #1B150B",
"#  c #1A1A0D",
"$  c #0E0F11",
"%  c #141414",
"&  c #1A1715",
"*  c #1D1B14",
"=  c #171818",
"-  c #191A1A",
";  c #201807",
":  c #231509",
">  c #231A08",
",  c #261F18",
"<  c #3C2D0E",
"1  c #262613",
"2  c #2A2613",
"3  c #2A2119",
"4  c #2C2B1B",
"5  c #342C15",
"6  c #333219",
"7  c #3C3C1D",
"8  c #212122",
"9  c #2E2E22",
"0  c #2C2C2C",
"q  c #302F24",
"w  c #37362B",
"e  c #3B3B3B",
"r  c #412711",
"t  c #4A2D13",
"y  c #4B3812",
"u  c #593517",
"i  c #594315",
"p  c #424121",
"a  c #494824",
"s  c #56552A",
"d  c #615227",
"f  c #705E2D",
"g  c #626131",
"h  c #6E6D36",
"j  c #716F39",
"k  c #78773B",
"l  c #79783B",
"z  c #282F48",
"x  c #293149",
"c  c #303749",
"v  c #454545",
"b  c #4D4D4D",
"n  c #595943",
"m  c #545454",
"M  c #595E54",
"N  c #64674D",
"B  c #6C6E4B",
"V  c #797944",
"C  c #656565",
"Z  c gray46",
"A  c #7E7E72",
"S  c #7C7C7C",
"D  c #856420",
"F  c #8D6A22",
"G  c #9E7726",
"H  c #867136",
"J  c #A07826",
"K  c #A67D28",
"L  c #A97F29",
"P  c #AA8129",
"I  c #858341",
"U  c #888643",
"Y  c #8E8D47",
"T  c #918F48",
"R  c #929148",
"E  c #9C9A4D",
"W  c #8D8D51",
"Q  c #A5A353",
"!  c #A9A755",
"~  c #ACAA56",
"^  c #B6B45A",
"/  c #B9B75C",
"(  c #B9B85C",
")  c #818181",
"_  c #848484",
"`  c #898989",
"'  c gray61",
"]  c gray62",
"[  c #989898",
"{  c #A3A3A4",
"}  c gray65",
"|  c #A7A7A7",
" . c gray67",
".. c #ACACAC",
"X. c #B1B1B1",
"o. c #B4B4B4",
"O. c #B9B9B9",
"+. c gray73",
"@. c #BBBBBB",
"#. c gray75",
"$. c gray76",
"%. c #C3C3C3",
"&. c gray76",
"*. c #CBCBCC",
"=. c gray80",
"-. c #CECECE",
";. c #C9C9C9",
":. c #D6D6D6",
">. c #D8D8D8",
",. c #DADADA",
"<. c gainsboro",
"1. c gray87",
"2. c #D8D8D8",
"3. c gray88",
"4. c #E6E6E6",
"5. c #E1E1E1",
"6. c gray91",
"7. c #EAEAEA",
"8. c gray92",
"9. c #EFEFEF",
"0. c #EFEFEF",
"q. c #F1F1F1",
"w. c #F3F3F3",
"e. c #F6F6F6",
"r. c gray94",
"t. c #F8F8F8",
"y. c gray99",
"u. c #FDFDFD",
"i. c #FEFEFE",
"p. c #AE8D75",
"a. c #AE8D75",
/* pixels */
"p.p.p.p.p.p.p.p.p.p.y.e.w.w.w.w.w.w.w.w.w.e.p.p.p.p.p.p.p.p.p.p.",
"p.p.p.p.p.p.p.p.p.p.=.e e e e e e e e e e C t.p.p.p.p.p.p.p.p.p.",
"p.p.p.p.p.p.p.<.2.2.] X                   0 =.2.2.7.p.p.p.p.p.p.",
"p.p.p.p.p.p.q.e % % % - % - % % % = % % = = % % % _ p.p.p.p.p.p.",
"p.p.p.p.p.&.] 8 X . o = = - - - = - - - - % o . . m ..<.p.p.p.p.",
"p.p.p.p.y.v   % - - - - - - = = - = = - - - - - = $   ] p.p.p.p.",
"p.p.p. .Z 0 o = - - - - - = = = - = - - = - - = = % o b S ,.p.p.",
"p.p.y.C   % = = = = - = - - = % - - - - - - - & = = % X   O.p.p.",
"p.p.p.C     X X . % - 8 8 8 8 8 8 8 8 8 8 8 = % o . X   X O.p.p.",
"p.p.p.C         X 4 9 w w w w w w w w w w w 9 *         X O.p.p.",
"p.p.p.C         & E ! ! ! ! ! Q Q Q ! ! Q Q ~ j         X O.p.p.",
"p.p.p.C         + k R ^ Q I E / ^ ^ Y I ^ ~ U s         X O.p.p.",
"p.p.p.C             6 ^ h   g / ^ ^ 1 + Q Y .             @.t.y.",
"p.p.p.X.S S Z %     6 ^ h   g / ^ ~ 1 + Q Y X     e S S W 3.p.p.",
"p.p.p.p.p.p.7.0     5 ^ h   g ^ ^ ~ 1 + Q W X     Z y.p.p.p.p.p.",
"p.p.p.p.p.S v = % $ * 6 s I B M M M V k y 4 + % % 0 b O.p.p.p.p.",
"p.p.p.0.5.e   % - - %   p ! N z x c W R + X % - - $   ` 4.y.p.p.",
"p.p.p.S 8 = % = = = % = % # o X X X + # % % - - - % = , 8 %.p.p.",
"p.p.p.C   * 3 3 3 % % - $ X % 3 8 8 o X % - $ & 3 3 3 .   O.p.p.",
"p.p.p.C   r u u t X X = = % b ) S S 0 = - %   O u u u : X O.p.p.",
"p.p.p.C   d H H f . X - = o 0 v v v & $ - =   2 H H H 5   O.p.p.",
"p.p.p.C   I / / E . o 8 %               8 ,   7 ^ ^ ^ a X O.p.p.",
"p.p.p.;.{ n 7 7 6   o 8 &             X 8 8   + 7 7 7 A  .7.p.p.",
"p.p.p.p.p.m $ % $   o 9 %     . . .     8 -   X $ $ % { p.p.p.p.",
"p.p.p.p.p.5.:.:.o.$ o 8 &   y F F D @   8 -   v :.:.:.0.p.p.p.p.",
"p.p.p.p.p.p.p.p.2.% X 8 %   i P L G >   8 -   m p.p.p.p.p.p.p.p.",
"p.p.p.p.p.p.p.p.:.% o 8 %   i L K G > X 8 -   m p.p.p.p.p.p.p.p.",
"p.p.p.p.p.p.p.p.:.% o 8 %   i L K G >   8 3   m p.p.p.p.p.p.p.p.",
"p.p.p.p.p.p.p.p.:.% . 8 %   i L K G >   - - X m p.p.p.p.p.p.p.p.",
"p.p.p.p.p.p.p.p.r.} Z % X   ; < < < .   o 0 [ #.p.p.p.p.p.p.p.p.",
"p.p.p.p.p.p.p.p.p.p.&.% % $ $ $ $ $ $ % $ v e.p.p.p.p.p.p.p.p.p.",
"p.p.p.p.p.p.p.p.p.p.r.;.;.;.;.;.;.;.;.;.;.:.y.p.p.p.p.p.p.p.p.p."
};
