/* XPM */
static char *result[] = {
/* columns rows colors chars-per-pixel */
"40 41 232 2 ",
"   c #197C04",
".  c #17781A",
"X  c #257E01",
"o  c #38761C",
"O  c #387608",
"+  c #197F26",
"@  c #307033",
"#  c #357630",
"$  c #4B7706",
"%  c #5A7B0A",
"&  c #437B18",
"*  c #517214",
"=  c #6A6F13",
"-  c #41553A",
";  c #526D3C",
":  c #477338",
">  c #46712E",
",  c #6A6E2E",
"<  c #327446",
"1  c #516043",
"2  c #4B7443",
"3  c #5A7751",
"4  c #467251",
"5  c #68775D",
"6  c #746953",
"7  c #078906",
"8  c #158804",
"9  c #019C03",
"0  c #079806",
"q  c #1B9E09",
"w  c #179607",
"e  c #158E1B",
"r  c #069418",
"t  c #119B14",
"y  c #1C9A1F",
"u  c #189716",
"i  c #278905",
"p  c #378603",
"a  c #289409",
"s  c #37930B",
"d  c #29881C",
"f  c #358914",
"g  c #388719",
"h  c #239C1A",
"j  c #299618",
"k  c #349716",
"l  c #00A400",
"z  c #03A900",
"x  c #0AA608",
"c  c #14A604",
"v  c #19A40B",
"b  c #01B307",
"n  c #15B000",
"m  c #01AA15",
"M  c #0DA815",
"N  c #19A912",
"B  c #24A31E",
"V  c #29A507",
"C  c #189926",
"Z  c #1F823F",
"A  c #1B892C",
"S  c #288B2A",
"D  c #37862A",
"F  c #2B9522",
"G  c #379829",
"H  c #248E33",
"J  c #2E873C",
"K  c #218235",
"L  c #3F8030",
"P  c #229C39",
"I  c #1BA327",
"U  c #0FA531",
"Y  c #35A725",
"T  c #2EAA30",
"R  c #4A8917",
"E  c #548817",
"W  c #458D0A",
"Q  c #62821D",
"!  c #42872B",
"~  c #488438",
"^  c #538C27",
"/  c #55A329",
"(  c #318240",
")  c #38A345",
"_  c #4F8554",
"`  c #75D24C",
"'  c #AFB039",
"]  c #F9A834",
"[  c #8FB65D",
"{  c #B0AD42",
"}  c #B4B959",
"|  c #A7AD4D",
" . c #B8AC71",
".. c #BAB673",
"X. c #B1B36B",
"o. c #FF9A59",
"O. c #DBA856",
"+. c #D3A758",
"@. c #CEB25E",
"#. c #CDA858",
"$. c #ECAF5F",
"%. c #F4A558",
"&. c #F9A14A",
"*. c #CB9E74",
"=. c #E69C6D",
"-. c #C8B36A",
";. c #CCA878",
":. c #DBAA76",
">. c #C6B779",
",. c #D5B779",
"<. c #CDB468",
"1. c #E3B97A",
"2. c #F1A975",
"3. c #8CD745",
"4. c #9BC658",
"5. c #97CE50",
"6. c #A4C358",
"7. c #B8CC5B",
"8. c #B5D65C",
"9. c #93C76A",
"0. c #8ED26D",
"q. c #B1C968",
"w. c #B7C878",
"e. c #A9D070",
"r. c #9AE06C",
"t. c #C8C474",
"y. c #C6C46D",
"u. c #B09D97",
"i. c #A9B48B",
"p. c #C49E8B",
"a. c #C5A480",
"s. c #DAAF8A",
"d. c #CBB389",
"f. c #D8B389",
"g. c #D5AA94",
"h. c #DAB999",
"j. c #CFB898",
"k. c #E8BD90",
"l. c #D2B4A3",
"z. c #C8B3AD",
"x. c #B7C985",
"c. c #ABFF91",
"v. c #B3FFB7",
"b. c #CAC798",
"n. c #ECC298",
"m. c #C4FF93",
"M. c #CBFF9A",
"N. c #D5FF98",
"B. c #FFE79F",
"V. c #C8CCB7",
"C. c #FEDDBE",
"Z. c #CDFFA9",
"A. c #D6FEA6",
"S. c #CAFFB2",
"D. c #CBFFBC",
"F. c #C3FFB6",
"G. c #D3FDB5",
"H. c #FEECAD",
"J. c #E7FBAA",
"K. c #FCFFA2",
"L. c #FEFFAA",
"P. c #FFE6BB",
"I. c #E1FEBB",
"U. c #EFFFBB",
"Y. c #EAFCB6",
"T. c #FFFEB4",
"R. c #FFF5B9",
"E. c #FEFFBB",
"W. c #F0FFB0",
"Q. c #B9FFC3",
"!. c #B5FFCA",
"~. c #BCFFD3",
"^. c #AAFFC9",
"/. c #DFE2CF",
"(. c #C5FFC6",
"). c #C7FEC9",
"_. c #D4FFC4",
"`. c #DDFFC5",
"'. c #D6FFCD",
"]. c #CCFED3",
"[. c #C6FFD6",
"{. c #DBFFD2",
"}. c #D3FFDB",
"|. c #D8FFD5",
" X c #FEEAC4",
".X c #FEE4C8",
"XX c #E2FEC3",
"oX c #EBFFCA",
"OX c #EAFCC7",
"+X c #FDF4CC",
"@X c #FDFFCA",
"#X c #FBFAC4",
"$X c #FEEDD4",
"%X c #FFEAD9",
"&X c #E5FEDD",
"*X c #E9FAD8",
"=X c #FFF3D4",
"-X c #FFFCD5",
";X c #FFF3DC",
":X c #F4FDDE",
">X c #FDFDDD",
",X c #F2F8D3",
"<X c #E7EBDC",
"1X c #D8FFE5",
"2X c #FCEFE1",
"3X c #E4FCE2",
"4X c #ECFFE4",
"5X c #ECFEEC",
"6X c #E7F6E8",
"7X c #FDF5E3",
"8X c #F4FDE4",
"9X c #FDFCE4",
"0X c #FEF4ED",
"qX c #F4FEEB",
"wX c #FDFDEC",
"eX c #F4F6E8",
"rX c #FDEFF4",
"tX c #FEEEFD",
"yX c #F2E8FA",
"uX c #EDFCF5",
"iX c #E6FDFF",
"pX c #ECFDFB",
"aX c #EBF2FF",
"sX c #F4F5F5",
"dX c #FEF6F3",
"fX c #F3FDF4",
"gX c #FDFDF4",
"hX c #F5F6FC",
"jX c #FDF5FD",
"kX c #F4FDFC",
"lX c #FDFDFD",
"zX c #E3EEE8",
/* pixels */
"                                                                                ",
"                                                                                ",
"                                                                                ",
"                                                                                ",
"                                                                                ",
"                                                                                ",
"                                                                                ",
"              5XqX4XwXwXwX0X0Xt                                                 ",
"              5X4X&X> ; ,X>X.Xg.l                                               ",
"              4X|.~ D D Z.OX..-.s                                               ",
"              1X[.+ h q a ` e.% kX                                              ",
"  ,XR.d.=X0X5 1X^.P 0 z x v i s 1X                                              ",
"  -X,.H.<., ; ].!.C v n z 9 M t 2 {.5X                                          ",
"  >X,.#.@.T.I.D.! f X ` V v M l : {.{.                                          ",
"  0Xa.:.<.} W.^ $ Q 6.6.5.i v 9 ~ D._.                                          ",
"    %X;.@.| Q $ 7.' K.= e.p w c ~ F.D.2 3 -                                     ",
"        gXd.-.q.5.W O & e.o i q H v.)._ @ OX+Xx.2 ].4X                          ",
"            +X, Y.^ & N.9.R i q o '.|.< Q.`.H.} 0.# *X$X7X0XgX                  ",
"        wXqXlXkX7X-X* 4.5.W j j `.{.[.Z e Z.q.8.s j G.-Xg.%X                    ",
"    wX;XwXhXlXaXjX%XT.8.3.V   F.oX|.A P y f R i t u f [ x.>                     ",
"      7XgXlXkXpXlX.X1.{ W y ).].XX# F I 7 8 j F u j a a h e }.                  ",
"            kXpXeXs.2.<.& H ~.uXG.& ! d F Y F c.A.m.i N 0 ) 2                   ",
"          iXgXlX9X;.:.R.Y.@ 4 sXXX`.I.`.F.d X N.K.4.k M B F.,X>X                ",
"                  >X XP.@XoX:X6 3 i.X.b.Y.J.E % } r.0 9 F S.#Xi.0X              ",
"                  wXC.k.;...R. X0X8Xj. .-.T.A.o j t m m u g 9.9.                ",
"                  7Xh.*.H.E.f.2.g.$X+X>.y., XXJ r r I e 8 s s f                 ",
"                    g.s.E.L.+.o.%.=.P.T.O ! }.J T 7 v.XXN.p i k V.<X            ",
"                     ..XE.t.O.o.] %.;.c./ . }.).8 a N.@Xw.p s D                 ",
"                    z.$X-X-.O.&.] #.% q x S 1X).u c k 9.0.s G !.                ",
"                        ,Xf.+.$.O.} j z l F ].~.I M w k a Y . ~.                ",
"                            k.:.d.U.k b b r ( !.A 7 B a M.m.f 0.i.              ",
"                            .X.X+XU.j z b U H Q.(.H d g 4.% $ 3.5               ",
"                                    XXo B 0 M e v.Q._ # > R V c 1               ",
"                                      _.G 8 w F G D.D.XXG.o d F 5 *X            ",
"                                      :XS./ i X X W & Y.OX,X&X{.*X              ",
"                                        @Xq.4.E E 5.} w.i.                      ",
"                                        j.-...i.W.K.} t.-X0Xz.rX:X              ",
"                                        %Xs.h..X XR.-.H.=XgXu.l.i.V./.          ",
"                                          g.a.l.j.a.;.h.;X                      ",
"                                          =X=X7X2X$X=X;                         ",
"                                         <X9X>X9X;X                             "
};
