/* XPM */
static char *result[] = {
/* columns rows colors chars-per-pixel */
"42 31 10 1 ",
"  c #197C04",
". c #183C10",
"X c #305820",
"o c #487430",
"O c #609040",
"+ c #78AC50",
"@ c #90C860",
"# c #A8E470",
"$ c #93B4B9",
"% c #D8FC8C",
/* pixels */
"                                          ",
"                                          ",
"                                          ",
"    +@@##%%%%%%%%%%###$#@@@@@+++++OOOOooo ",
"   oO+@@##%%%%%%######$@@@@@+++++OOOOoooXX",
"   oO+@@##%%%%%%######$@@@@@+++++OOOOoooXX",
"   oO+@@##%%%%%%######$@@@@@+++++OOOOoooXX",
"   oO+@@##%%%%%%######$@@@@@+++++OOOOoooXX",
"   oO+@@##%%%%%%######$@@@@@+++++OOOOoooXX",
"   oO+@@##%%%%%%######$@@@@@+++++OOOOoooXX",
"   oO+@@##%%%%%%######$@@@@@+++++OOOOoooXX",
"   oO+@@##%%%%%%######$@@@@@+++++OOOOoooXX",
"   oO+@@##%%%%%%######$@@@@@+++++OOOOoooXX",
"   oO+@@##%%%%%%######$@@@@@+++++OOOOoooXX",
"     ooooOO++++++OOOOO$OooooooooXXXX....  ",
"                      $                   ",
"    $$$$$$$$$$$$$$$$$$$$$$$$$$$$$$$$$$$$  ",
"     oO+@@##%%%%%#####$@@@@@+++++OOOooXX  ",
"     oO+@@##%%%%%#####$@@@@@+++++OOOooXX  ",
"     oO+@@##%%%%%#####$@@@@@+++++OOOooXX  ",
"     oO+@@##%%%%%#####$@@@@@+++++OOOooXX  ",
"     oO+@@##%%%%%#####$@@@@@+++++OOOooXX  ",
"     oO+@@##%%%%%#####$@@@@@+++++OOOooXX  ",
"     oO+@@##%%%%%#####$@@@@@+++++OOOooXX  ",
"     oO+@@##%%%%%#####$@@@@@+++++OOOooXX  ",
"     oO+@@##%%%%%#####$@@@@@+++++OOOooXX  ",
"     oO+@@##%%%%%#####$@@@@@+++++OOOooXX  ",
"     oO+@@##%%%%%#####$@@@@@+++++OOOooXX  ",
"     oO+@@##%%%%%#####$@@@@@+++++OOOooXX  ",
"     oO+@@##%%%%%#####$@@@@@+++++OOOooXX  ",
"     oO+@@##%%%%%#####$@@@@@+++++OOOooXX  "
};
