/* XPM */
static char *_d9e1cd12ada4b93d169bc3e91046ab6lGYlKdMgwb9CmGOR[] = {
/* columns rows colors chars-per-pixel */
"32 32 9 1 ",
"  c #AE8D75",
". c #AE8F76",
"X c #AF8F77",
"o c #B08F76",
"O c #AF9076",
"+ c #AF9078",
"@ c #B09076",
"# c #B09078",
"$ c #B09178",
/* pixels */
"... o...o.oo.o.#.#@#.o.O@++@Oo..",
".......o.oo.o.@@O##@#.oO@@@#+...",
"......  ..o.o.@##@O##Oo..#@O....",
".....o ..o.ooo#@@.#@#O+@o@##o...",
"...o...o..o.@@##@#@#O+o@+O+O.X..",
"O.. .......o@#@##@#@+O..O+O.#O#.",
".@.oo. oo.+O+@#@O@#@O@oo+@O++O.#",
"......  ..OOO##@#.###..#@##+@#.O",
"o..... .o@..o.o######..o@###O...",
"OO..o.   ..o.o.#O##OoO#.@@@#+O..",
".O..o..   ...@@@#@O+@#OOO.@#.#o.",
"oo...o.o@..oO@#####@#@+OO##@oo..",
"..o.o...O..o.o@##@#@#O+OOO##@#..",
".....oo..o.oo.@@@#@#@OO+###@#@.o",
"@@o...o... .oo@@@#+@###O@@#.#@@@",
"@....o.o......OO+#O###@O#@@+O+O+",
"..o.o.o..oo..o..O#@#@@#@#@#@#+..",
".XXX.o.  .. ...oO###@o@#O##@OOo.",
"...oo.o.. .......OOOo.@+#@##.#X.",
"...o.o...oo......OOO.o.@o#.ooo..",
"o...o#.. .. .. ..o.oo.@@.O#@.o..",
".o.o.oo..o...o.o.oo.@o#@##@.#...",
"..o.o..o..o........o@@X#@#O#@+o+",
".o.o.oo.oo.o..o.o.o.o####@#@#O#.",
".....o. .. o...o.o.oO+##@##@++O.",
".oo.o..o.oo..o.oo.o@O@@@#O@#OO@#",
"o..oo.. ..........o.O###@O###@..",
".o...........o.....o.OOO#+@###o.",
".o .o..    .....oo...o.o#####O+O",
". ....  . o....oo..ooo..OO#@O+..",
"  ....  .  ......o.oO.OO#O@+O+#.",
".......o.    .o.o.o..OO+@##@..@."
};
