/* XPM */
static char *_181f4aeefed4cd6dd5cc2a286e4eebcwjg2C4mr60nWwQVQ[] = {
/* columns rows colors chars-per-pixel */
"31 32 101 2 ",
"   c #008400",
".  c #008C00",
"X  c #008C08",
"o  c #009400",
"O  c #009C00",
"+  c #009C08",
"@  c #009C10",
"#  c #00A500",
"$  c #00AD00",
"%  c #00A508",
"&  c #00AD08",
"*  c #00B500",
"=  c #08B500",
"-  c #00BD00",
";  c #08BD00",
":  c #00B508",
">  c #00BD08",
",  c #00A510",
"<  c #00AD10",
"1  c #00A518",
"2  c #00AD18",
"3  c #00B510",
"4  c #00BD10",
"5  c #00B518",
"6  c #00BD18",
"7  c #00A521",
"8  c #00AD21",
"9  c #00AD29",
"0  c #00B521",
"q  c #00BD21",
"w  c #00B529",
"e  c #00BD29",
"r  c #00B531",
"t  c #00BD31",
"y  c #00B539",
"u  c #00BD39",
"i  c #08BD39",
"p  c #00C608",
"a  c #10C600",
"s  c #18C600",
"d  c #10CE00",
"f  c #18CE00",
"g  c #18C608",
"h  c #00C610",
"j  c #00C618",
"k  c #08D610",
"l  c #21CE00",
"z  c #21CE08",
"x  c #21D600",
"c  c #29D610",
"v  c #31DE10",
"b  c #00C621",
"n  c #00CE21",
"m  c #00C629",
"M  c #00CE29",
"N  c #08CE29",
"B  c #18CE21",
"V  c #10CE29",
"C  c #10D629",
"Z  c #00C631",
"A  c #08C631",
"S  c #00CE31",
"D  c #08CE31",
"F  c #00C639",
"G  c #08C639",
"H  c #00CE39",
"J  c #08CE39",
"K  c #10CE31",
"L  c #10CE39",
"P  c #10D631",
"I  c #18DE31",
"U  c #10D639",
"Y  c #4ADE00",
"T  c #5AEF00",
"R  c #63F700",
"E  c #42E729",
"W  c #08C642",
"Q  c #08CE42",
"!  c #10CE42",
"~  c #10CE4A",
"^  c #10D642",
"/  c #18D642",
"(  c #18DE42",
")  c #18D64A",
"_  c #18DE4A",
"`  c #21DE4A",
"'  c #21D652",
"]  c #21DE52",
"[  c #21D65A",
"{  c #21DE5A",
"}  c #29DE5A",
"|  c #29E75A",
" . c #31E75A",
".. c #31DE63",
"X. c #39E763",
"o. c #31EF63",
"O. c #39EF63",
"+. c #31EF6B",
"@. c #39F76B",
"#. c #4AFF7B",
"$. c #52FF84",
/* pixels */
"R # 5 : q o < m 3 < o.O / # & # < O % 0 2 2 5 0 3 O 5 ` q 5 % ",
"T % < 5 q $   O 2 + , o / $ * * 3 # # 5 m & 6 3 $ 6 3 % < < % ",
"% < q % # : . % Z , % O # # : $ $ 6 # : U q 6 < * m m o 5 O < ",
", , < < N # 2 < 2 , O < $ > k - $ m 4 3 3 b & ( $ V $ D ] O 0 ",
"O O O , 2 # O & # O < 6 $ O h $ & S q % O 3 P % p > 3 q t 0 2 ",
"% O % , , O J O # o O O O # : b M & % o | q 4 6 * 4 $ Z 0 2 t ",
"% 5 O + , O # # # $ O O $ # x v 6 q % F 5 % 6 < $ 3 & % < +.% ",
"e e o o O O m # # $ $ $ 4 : o h 4 O % O 3 & b m b q 5 & @.0 < ",
"_ 0 % o O # # O # # # $ $ $ # $ : # 5 5 % q b 6 N M 5 Z 0 o Z ",
"q O q H # : # o O : O : b : O : 6 5 w , % & 3 6 n 3 & t o < 0 ",
"# . 6 q # - $ f O $ $ & & $ $ b 3 , 0 0 % < & : 4 0 < . 5 < % ",
"N O 6 5 o : : d & # O & : O 3 6 # # 5 . < q 5 D # 5 < 2 < < o ",
": # m < 6 5 & O & # # & & 3 # 6 #   % ; o < 5 b # O 5 0 5 5 $ ",
"o O m < e # 3 # & # # < % m 0 & & , a Y : % ( O.# 3 < O e O o ",
"O # b e m 3 < # & % % 2 O O , % % % , = O , O q 5 q 5 < 5 5 o ",
"& 6 q 2 J Z & 5 5 < < 2 % < 2 O % < % , , 5 5 < < 2 2 < 5 m 3 ",
"2 Z m m ! ) Z Z ^ 5 e 8 1 1 w 8 , % , , < 5 q 5 q 2 w 0 0 2 5 ",
"z R q q e ) 2 O Z < , t w w u % , + 0 2 2 e A < 0 e 0 2 0 % % ",
"Z , 0 e t t 2 0 # Z 2 t 8 9 @ 1 , 2 w ! , < e $ e 0 2 Z , Z 0 ",
"0 t 0 A G 2 q 0 < 0 2 8 , w , 2 8 8 1 w %  .# q Q e , ' 0 2 ) ",
", e 0 2 % G m m 5 0 < 2 8 ~ F w w w 0 u % X.< 0 o 0 Z , 2 , , ",
"2 , e [ 0 & : V b 3 % % 2 5 % 2 8 y X r 8 0 o 0 ! % w 0 2 2 , ",
", 2 + 1  .O < : 5 m , # , % 2 2 8 7 1 ! , G G , 5 0 2 t , o 2 ",
"2 O L 6 8 W w 8 0 1 t # # O 5 e Z D ! 0 , # e 2 % < < 2 , 2 2 ",
"2 % O # @ , 2 . 0 D % 5 < < < < # Z 0 2 e , + G 6 q A 2 , , , ",
"0 q 5 & 2 , 2 B s % % % % O O 2 0 O < O O ) + + 6 c < < 0 e + ",
"q 5 D # < Z % 3 l # M 2 O e 8 0 % 0 e } + , i + $ R m e e { 0 ",
"Z o 6 j o #.J % & 3 % < < 5 @ w t e 0 w $.G t t 5 q & # 0 + 2 ",
"m 3 # C % < # q O I 6 $ 5 e < , 2 2 0 o ..r 2 q $ L m 0 Z O % ",
"3 3 & I e Z 5 3 K : m U % q < 3 g E w o 0 1 0 0 < 6 3 q 3 < 5 ",
"6 3 & $ ) ^ 6 $ 3 j & < q A 5 q 6 < < G w 2 & e 6 O 5 & 5 q q ",
"5 m # o & O q < 3 ^ m q & < 5 % 5 q % 5 < < , % j 6 6 < 5 O q "
};
