/* XPM */
static char *_18d2928066b4530ea2b0ae526ccbc70BW0N8RIydkKCJPf2[] = {
/* columns rows colors chars-per-pixel */
"22 32 12 1 ",
"  c #380000",
". c gray13",
"X c #3F3F3F",
"o c #B60000",
"O c red",
"+ c #824F12",
"@ c #FF6812",
"# c #FFDA00",
"$ c #FFFF93",
"% c #DADAA5",
"& c #FFD1C0",
"* c #197C04",
/* pixels */
"**********************",
"**********************",
"**********************",
"*********+XXX*********",
"*******XX*$#*XX*******",
"******X%*#**#*%X******",
"*****X%*......*%X*****",
"*****X%........%X*****",
"*****X..........X*****",
"*****X..**@@**..X*****",
"****@.@&*.&&.*&@.@****",
"***@+.&&*.&&.*&&.+@***",
"***@+..&@&&&&@&..+@***",
"****@.&..@@@@..&.@****",
"*****+&........&+*****",
"******+&......&+******",
"****++++@@@@@@++++****",
"***+**++++++++++**+***",
"***+**+*+o%%o+*+**+***",
"***+**+*+OXXO+*+**+***",
"***+*+*+OOOOOO+*+*+***",
"****+++**OOOO**+++****",
"*****  **OOOO**  *****",
"***** oOOOOOOOOo *****",
"***** oOOOOOOOOo *****",
"****** oOOooOOo ******",
"****** ooo  ooo ******",
"*******        *******",
"******.+++..+++.******",
"*****.&+++..+++&.*****",
"*****.....**.....*****",
"**********************"
};
