/* XPM */
static char *d9a1bbb8bd4a4ed39d954847d08bf8feqv0xkxEjKMIzYF7r[] = {
/* columns rows colors chars-per-pixel */
"18 29 12 1 ",
"  c #197C04",
". c gray13",
"X c #3F3F3F",
"o c #B60000",
"O c red",
"+ c #824F12",
"@ c #FF6812",
"# c #FFDA00",
"$ c #FFFF93",
"% c #DADAA5",
"& c #FFD1C0",
"* c white",
/* pixels */
"                  ",
"         XXXXX    ",
"       XX**$**X   ",
"      X**%#$*%X   ",
"     X*%%.......  ",
"    X*%.......... ",
"   X%%........... ",
"   X%%..@**@**..  ",
"   @&..@@*.&.     ",
"  @+&..@&*.&.*&+  ",
"  @+@...&&@@&&&+  ",
"   @@@.&&.+@@@@+  ",
"   ..@@@......... ",
"    ..@@&&......  ",
"     .+@@@@@@@+   ",
"      X%%XX+++    ",
"     X**X%+***+   ",
"    X%***+*****+  ",
"    X%%**+*****+  ",
"     X%%*%+***+   ",
"      X%%XX+++    ",
"     o XXXOOOo    ",
"     oooOOOOOo    ",
"      oooOO o     ",
"      ooooo o     ",
"                  ",
"      +++++.+.    ",
"      .++++$.$.   ",
"      .........   "
};
