/* XPM */
static char *ec3b6d94edfd4ccd8db7780f893797427XMsZcjS5JbYIIjt[] = {
/* columns rows colors chars-per-pixel */
"20 33 12 1 ",
"  c #197C04",
". c gray13",
"X c #3F3F3F",
"o c #B60000",
"O c red",
"+ c #824F12",
"@ c #FF6812",
"# c #FFDA00",
"$ c #FFFF93",
"% c #DADAA5",
"& c #FFD1C0",
"* c white",
/* pixels */
"                    ",
"                    ",
"                    ",
"       XXXXX        ",
"      X**$**XX      ",
"      X%*$#%**X     ",
"     .......%%*X    ",
"    ..........%*X   ",
"    ...........%%X  ",
"    *..**@**@..%%X  ",
"    ****.&.*@@..&@  ",
"     +&*.&.*&@..&+@ ",
"     +&&&@@&&...@+@ ",
"     +@@@@+.&&.@@@  ",
"    .........@@@..  ",
"     ......&&@@..   ",
"       +@@@@@@+.    ",
"        ++XX%%XX    ",
"       X %%+++**X   ",
"     ++o%*++**+**X  ",
"    +*O%*+*****+%X  ",
"    ++*oO+*****+%X  ",
"      *OO*+***+XX   ",
"      oOOOO+++oo    ",
"      oOOOOOOoo     ",
"    . oOOooOooo     ",
"   .+$ oo  oo   +.  ",
"   ..+++ *     ++.  ",
"   ....+.***.++++.  ",
"    .....**.$+++.   ",
"      ..***.....    ",
"                    ",
"                    "
};
