/* XPM */
static char *_0cbf398f4f74c15fafb216da6080865AgjjMhQaffOhXMXi[] = {
/* columns rows colors chars-per-pixel */
"24 32 10 1 ",
"  c #380000",
". c gray13",
"X c #3F3F3F",
"o c #B60000",
"O c red",
"+ c #824F12",
"@ c #FF6812",
"# c #DADAA5",
"$ c #FFD1C0",
"% c #197C04",
/* pixels */
"%%%%%%%%%%%%%%%%%%%%%%%%",
"%%%%%%%%%%%%%%%%%%%%%%%%",
"%%%%%%%%%%%%%%%%%%%%%%%%",
"%%%%%%%%%%XXX+%%%%%%%%%%",
"%%%%%%%%XX####XX%%%%%%%%",
"%%%%%%%X#%%%%%%#X%%%%%%%",
"%%%%%%X#%%%%%%%%#X%%%%%%",
"%%%%%%X#%%%%%%%%#X%%%%%%",
"%%%%%%X#%%%%%%%%#X%%%%%%",
"%%%%%%X#%%%%%%%%#X%%%%%%",
"%%%%%+.X#%%%%%%#X.+%%%%%",
"%%%%+$.XX######XX.$+%%%%",
"%%%%+@...XXXXXX...@+%%%%",
"%%%%%+............+%%%%%",
"%%%%%%+$........$+%%%%%%",
"%%%%%%%+$......$+%%%%%%%",
"%%%%%%+++@....@+++%%%%%%",
"%%%%%+X%%  %%  %%X+%%%%%",
"%%%%+X%%%oooooo#%%X+%%%%",
"%%%%+X%##oOOOOo##%X+%%%%",
"%%%%%+##oOO  OOo##X%%%%%",
"%%%%%% oOOOOOOOOo %%%%%%",
"%%%%%% ooooOOoooo %%%%%%",
"%%%%%% oOOoOOoOOo %%%%%%",
"%%%%%% oOOoOOoOOo %%%%%%",
"%%%%%%% oooOoooo %%%%%%%",
"%%%%%%% ooo  ooo %%%%%%%",
"%%%%%%%%        %%%%%%%%",
"%%%%%%%.+++..+++.%%%%%%%",
"%%%%%%.++++..++++.%%%%%%",
"%%%%%%.....%%.....%%%%%%",
"%%%%%%%%%%%%%%%%%%%%%%%%"
};
