/* XPM */
static char *_78b50074a2949b1dbd96ee4b81b1099hGR579QINWtQ6w6H[] = {
/* columns rows colors chars-per-pixel */
"32 32 19 1 ",
"  c #AE8D75",
". c #AE8D75",
"X c #24112F",
"o c gray18",
"O c #373735",
"+ c #464646",
"@ c #555553",
"# c #585858",
"$ c #747474",
"% c #96442C",
"& c #B98768",
"* c #F2AF7D",
"= c #A7A7A9",
"- c #AEAEC5",
"; c #DCC7CC",
": c #FDD8C6",
"> c gray88",
", c #F8F8F8",
"< c white",
/* pixels */
"                                ",
"              ooo.              ",
"             o###.o..           ",
"           .o###o###.           ",
"          oo###+###+..          ",
"          .+$#####+....         ",
"         .o#$$#######o.         ",
"         .####+$$##$##o.        ",
"         .###++##+##+++o        ",
"         X+#++++++###++o        ",
"         X+++o++++++oo..        ",
"         X++o::+++++oo.         ",
"         X:::::o+++++o.         ",
"          X::&&o&&o++..         ",
"          X::X;o*:&oo.          ",
"          X::X,**:&ooX          ",
"          X::::*&&ooX           ",
"           X*:**&oXXX           ",
"            XXX&&XX             ",
"             X*><>X             ",
"             X<=<=X             ",
"             X>=>=X             ",
"             XX:*XOX            ",
"             XX*:XOX            ",
"             XOXX@OX            ",
"              XO@@X             ",
"               XOOX             ",
"              X%%X              ",
"              X--X              ",
"              XXX               ",
"                                ",
"                                "
};
