/* XPM */
static char *_eb746d66d2c4f0095725c06fe9c6f85jYAru6w4FTbGwgQo[] = {
/* columns rows colors chars-per-pixel */
"32 32 19 1 ",
"  c #AE8D75",
". c #AE8D75",
"X c #24112F",
"o c gray18",
"O c #373735",
"+ c #464646",
"@ c #555553",
"# c #585858",
"$ c #747474",
"% c #96442C",
"& c #B98768",
"* c #F2AF7D",
"= c #A7A7A9",
"- c #AEAEC5",
"; c #DCC7CC",
": c #FDD8C6",
"> c gray88",
", c #F8F8F8",
"< c white",
/* pixels */
"                                ",
"              .ooo              ",
"           ..o.###o             ",
"           .###o###o.           ",
"          ..+###+###oo          ",
"         ....+#####$+.          ",
"         .o#######$$#o.         ",
"        .o##$##$$+####.         ",
"        o+++##+##++###.         ",
"        o++###++++++#+X         ",
"        ..oo++++++o+++X         ",
"         .oo+++++::o++X         ",
"         .o+++++o:::::X         ",
"         ..++o&&o&&::X          ",
"          .oo&:*o;X::X          ",
"          Xoo&:**,X::X          ",
"           Xoo&&*::::X          ",
"           XXXo&**:*X           ",
"             XX&&XXX            ",
"             X><>*X             ",
"             X=<=<X             ",
"             X=>=>X             ",
"            XOX*:XX             ",
"            XOX:*XX             ",
"            XO@XXOX             ",
"             X@@OX              ",
"             XOOX               ",
"              X%%X              ",
"              X--X              ",
"               XXX              ",
"                                ",
"                                "
};
