/* XPM */
static char *_641b62f5eb64f2de0af154d9cc89b68tFavxKLS6mb24Xvj[] = {
/* columns rows colors chars-per-pixel */
"31 32 239 2 ",
"   c None",
".  c #100000",
"X  c #180000",
"o  c #210000",
"O  c #290000",
"+  c #290800",
"@  c #310800",
"#  c #311000",
"$  c #391000",
"%  c #311800",
"&  c #391800",
"*  c #391008",
"=  c #392108",
"-  c #421800",
";  c #421808",
":  c #422100",
">  c #4A2100",
",  c #4A2900",
"<  c #422108",
"1  c #4A2108",
"2  c #4A2908",
"3  c #522900",
"4  c #522908",
"5  c #523100",
"6  c #5A3100",
"7  c #523108",
"8  c #5A3108",
"9  c #5A3908",
"0  c #4A2110",
"q  c #4A2910",
"w  c #522910",
"e  c #522918",
"r  c #523110",
"t  c #5A3110",
"y  c #5A3910",
"u  c #523118",
"i  c #5A3118",
"p  c #5A3918",
"a  c #633900",
"s  c #6B3900",
"d  c #633908",
"f  c #633910",
"g  c #5A3921",
"h  c #004A00",
"j  c #005A00",
"k  c #214A00",
"l  c #394200",
"z  c #215200",
"x  c #215A00",
"c  c #315A00",
"v  c #006300",
"b  c #086B00",
"n  c #007B00",
"m  c #087B00",
"M  c #107300",
"N  c #296300",
"B  c #316300",
"V  c #316B08",
"C  c #217B00",
"Z  c #425A00",
"A  c #425208",
"S  c #4A4A10",
"D  c #524210",
"F  c #5A5A10",
"G  c #734208",
"H  c #634210",
"J  c #6B4210",
"K  c #6B4A10",
"L  c #634218",
"P  c #6B4218",
"I  c #6B4A18",
"U  c #734A10",
"Y  c #7B4A10",
"T  c #734A18",
"R  c #735218",
"E  c #7B5218",
"W  c #426B10",
"Q  c #4A6B10",
"!  c #5A6318",
"~  c #4A7310",
"^  c #4A7B18",
"/  c #527318",
"(  c #634221",
")  c #6B4221",
"_  c #6B4A21",
"`  c #634229",
"'  c #634A29",
"]  c #6B4A29",
"[  c #734A21",
"{  c #6B5229",
"}  c #735221",
"|  c #7B5221",
" . c #735229",
".. c #7B5229",
"X. c #7B5A29",
"o. c #735231",
"O. c #7B5231",
"+. c #735A31",
"@. c #7B5A31",
"#. c #7B5A39",
"$. c #7B6339",
"%. c #7B6342",
"&. c gray42",
"*. c #845A21",
"=. c #845A29",
"-. c #845A31",
";. c #846329",
":. c #8C6329",
">. c #946329",
",. c #9C7329",
"<. c #846331",
"1. c #8C6331",
"2. c #846339",
"3. c #8C6339",
"4. c #8C6B39",
"5. c #946331",
"6. c #946B39",
"7. c #9C7331",
"8. c #9C7339",
"9. c #AD7331",
"0. c #A57B39",
"q. c #846342",
"w. c #846B42",
"e. c #8C6B42",
"r. c #846B4A",
"t. c #8C6B4A",
"y. c #946B42",
"u. c #947342",
"i. c #9C7342",
"p. c #94734A",
"a. c #9C734A",
"s. c #9C7B4A",
"d. c #8C7352",
"f. c #947352",
"g. c #947B52",
"h. c #9C7B52",
"j. c #947B5A",
"k. c #9C7B5A",
"l. c #A57B42",
"z. c #A57B4A",
"x. c #A57B52",
"c. c #8C7B6B",
"v. c #008400",
"b. c #108400",
"n. c #188400",
"m. c #188C00",
"M. c #009400",
"N. c #009C00",
"B. c #189C00",
"V. c #218C00",
"C. c #219400",
"Z. c #299400",
"A. c #299C08",
"S. c #399408",
"D. c #398410",
"F. c #299C10",
"G. c #399410",
"H. c #00A500",
"J. c #18A500",
"K. c #18AD00",
"L. c #18A508",
"P. c #18AD08",
"I. c #00B500",
"U. c #00BD00",
"Y. c #18B500",
"T. c #18B508",
"R. c #21AD00",
"E. c #21AD08",
"W. c #31A508",
"Q. c #39A508",
"!. c #21BD08",
"~. c #29BD08",
"^. c #29AD10",
"/. c #39A510",
"(. c #39AD10",
"). c #31A518",
"_. c #29B510",
"`. c #29BD18",
"'. c #31BD10",
"]. c #39BD21",
"[. c #31BD31",
"{. c #428410",
"}. c #4A8418",
"|. c #42AD10",
" X c #42A518",
".X c #42B510",
"XX c #5A8421",
"oX c #529C21",
"OX c #5A9C31",
"+X c #639C29",
"@X c #639C39",
"#X c #739439",
"$X c #7B9C39",
"%X c #4AA521",
"&X c #42B521",
"*X c #4AB521",
"=X c #42AD39",
"-X c #4ABD31",
";X c #00CE00",
":X c #10C600",
">X c #10CE00",
",X c #18CE08",
"<X c #08DE00",
"1X c #10DE00",
"2X c #10DE08",
"3X c #18DE10",
"4X c #21CE10",
"5X c #21C618",
"6X c #21CE18",
"7X c #29CE18",
"8X c #31C610",
"9X c #31C618",
"0X c #21DE10",
"qX c #29DE10",
"wX c #08EF00",
"eX c #18E708",
"rX c green",
"tX c #42CE21",
"yX c #52C629",
"uX c #52C631",
"iX c #5ACE31",
"pX c #42A542",
"aX c #73A54A",
"sX c #A58452",
"dX c #A5845A",
"fX c #AD845A",
"gX c #AD8C5A",
"hX c #9C8463",
"jX c #94846B",
"kX c #A58463",
"lX c #A58C63",
"zX c #AD8C63",
"xX c #AD8C6B",
"cX c #B58C63",
"vX c #B59463",
"bX c #B5946B",
"nX c #BD946B",
"mX c #B59473",
"MX c #C69C73",
/* pixels */
"                                                              ",
";XiXbXs.T ) _ -.<.@.X.6 f _ o.` . X = t 7 } <.h.e.a...(.H.;X3X",
";XqXh.s.> , y  .{  .2.3 > ,  .+.# : q y y <.4.e.x.fXH [ /.4XI.",
"H.uXzX<.@ - : 4 , , 7 - 6 # : & H 5 p I L 6.a.a.4.@.: I W.).I.",
"rX1XA.y ; -.} dX<.L @ @ 9 > 5 & 9 > L [ <.4.3.4.} 8 A / ^ 5X4X",
"H.S.W.A.a.X.e.u.1.} 3 > 7 I ;.<.3 f ( P 2.6.=.X.) r 4 [ s.^._.",
"2X~ I r gXu.i.6.[ $ $ [ _ P I u.H e...L y 4._ 8 & o y MXh.L G.",
"v F 7 1 z.6.T T f 3 t L 7 P } ..I s.u.P u y , $ - 3 e.bXd. .b ",
"`.pXL - @ - P f _  .I L L } <.H 3 h.) < ) $.3 < } p.dXlXj.{ -X",
"v.[.W.$ $ T 7.Y d J R =.y y , # L } @.;  .@.y i u.gXxXmXr.p &X",
"n U.;Xm.1.l.:.T J *.,.d 7 & @ @ & < & + 2. .L L _ gXsXg.] p rX",
"U.H.*X@.| 8.| K J a $ 6 , > & 3 0 * O + L _ _ 8 t x.3. .L : B.",
"M oXy. .@.H 6 5 @ 5 f P > @ @ 9 ) u O $ 8 I P f 1 1 7 7 , K.;X",
"'...O.L y 8 - - P 4.<.f > ..f 3 ] L # 8 8 3 7 f # @ O k x K.L.",
"wX(.X & , 3 > 2.2...<.3.....> H 2.3 - 8 H 5 3 > # > > f 7 C.>X",
"H.Z Z.V.L <.2.2._ J @.2.p.y , X._ : , 8 y 8 3 # f -.X.u.vXnXjX",
">XR.M.;XyXdXq ; } I u ] p L f 5 - > 9 6 7 y > 6 } -.sXi.sXkXc.",
"M.<Xj C.1 9 o @ > 1 + w q & - I hX7 & 7 -  .k.#.2.7 2.q._ kXaX",
";XC.< e + O - > - o 8 } y  .@ $ 7 # 6 > $ g w.p.@._ 2.y 7  .@X",
" XD.T - - U J | : & _ L r r X > y # & - - t.f.kX$.o.5 - y @.U.",
"N.z.1.- $ s s 5.f y ) y y , o 6 L 7 ' _ y _ w.y 7 3 L H ! >Xm ",
"eX$X3 o # G 9.:.8 , 8 L - o I T 8 f  .9 , , & o O _ ..XX}.(.N.",
"tX=X& 8 > $ Y >.> o O X O H P 3 H - 5 5 5 & 6 *.I @.} I Q.~.F.",
"^.D r dX_ $ O O o O @ f =.=.7 . 9 > : 5 - ;.0.*.-.p.[ 6 y n.6X",
"W ].OX%Xy f $ # > :  .X.X.=.} o T 6 o O o E =.d f e.> @ @ o b.",
"7XU.,XE.E.B P =.3 - @.} } =.} H 1.- 5 L o - 3 $ 5 } O -.p.f G.",
"8Xv.:XP.V 8 1.<._ # 9 H X.X.1.: , + 9 : > o o 5 5 <.[ x. . .>X",
"9X+X#XQ S ..3 P H @ 9 $ , <.u.> o L y  .2.I 9 2.X.4.} 7 & P {.",
"0Xn.cXX.H P P 5 & - $ @ + , I : > 2.+.%.+.7 -.2.e.2.e.$ # c !.",
"&.i.3.4.} , & -  .4.o o @.} o X 2.L , L & # L y ] +.@.- % C J.",
".X=.X.=., <.8  .2.e.3 f nXf O @ L 9 3 & - $ & > 3 L 8 B l z T.",
"8X|.X...> -.@._ 2.4.2.3._ H P _ 2 $ r 1 + o O - > 3 N n Y.V.h "
};
